<svg xmlns="http://www.w3.org/2000/svg" xmlns:xlink="http://www.w3.org/1999/xlink" version="1.1" x="0px" y="0px" viewBox="0 0 100 125" enable-background="new 0 0 100 100" xml:space="preserve"><path d="M84.2319336,21.3505859C78.324707,14.1826172,70.390625,9.0039063,61.237793,6.5507813  C49.6313477,3.4433594,37.5024414,5.0371094,27.0913086,11.046875C16.6821289,17.0566406,9.2358398,26.7607422,6.1245117,38.3720703  c-0.1464844,0.5458984-0.230957,1.0976563-0.3564453,1.6464844h10.3173828  c2.5634766-8.6064453,8.1967773-15.8037109,16.0058594-20.3115234c8.0957031-4.6757813,17.5244141-5.9160156,26.5585938-3.4960938  c8.0668945,2.1611328,14.9331055,7.0263672,19.6416016,13.8076172H59.2319336v10h35V5.0175781h-10V21.3505859z"/><path d="M67.9086914,80.2919922c-8.0957031,4.6757813-17.5244141,5.9169922-26.5585938,3.4970703  c-8.0668945-2.1611328-14.9331055-7.0263672-19.6416016-13.8076172h19.0595703v-10h-35v35h10V78.6494141  C21.675293,85.8173828,29.609375,90.9960938,38.762207,93.4482422c11.6064453,3.1083984,23.7353516,1.5136719,34.1464844-4.4960938  c10.4091797-6.0097656,17.8554688-15.7128906,20.9667969-27.3242188c0.1464844-0.5458984,0.230957-1.0976563,0.3564453-1.6464844  H83.9145508C81.3510742,68.5878906,75.7177734,75.7841797,67.9086914,80.2919922z"/><text x="0" y="115" fill="#000000" font-size="5px" font-weight="bold" font-family="'Helvetica Neue', Helvetica, Arial-Unicode, Arial, Sans-serif">Created by David Khai</text><text x="0" y="120" fill="#000000" font-size="5px" font-weight="bold" font-family="'Helvetica Neue', Helvetica, Arial-Unicode, Arial, Sans-serif">from the Noun Project</text></svg>