<svg width="122" height="134" viewBox="0 0 122 134" fill="none" xmlns="http://www.w3.org/2000/svg">
<path d="M99.4136 54.7419C97.2278 56.3931 96.4992 57.3105 96.4992 58.5948C94.3134 72.5383 90.124 90.7016 83.9309 100.242C77.0093 111.067 65.3518 114.552 52.0549 114.552C42.5832 114.552 35.4794 113.268 30.7435 109.782C30.0149 109.232 29.1042 108.865 28.0113 108.681C26.9184 108.498 26.0076 108.865 25.2791 109.415L12.7108 118.589C12.1644 118.956 11.6179 119.69 11.4358 120.24C11.0715 120.974 10.8893 121.524 11.0715 122.258C11.0715 122.992 11.2536 123.726 11.6179 124.276C11.9822 124.827 12.5286 125.377 13.0751 125.927C22.3647 132.165 35.2972 134 50.2334 134C72.4556 134 90.124 128.496 101.417 113.635C113.985 97.123 120.361 67.2177 122 47.7702C122 46.8528 121.818 46.119 121.454 45.3851C121.089 44.6512 120.361 44.1008 119.632 43.5504C118.903 43.1835 117.993 43 117.082 43C116.171 43 115.443 43.3669 114.714 43.7339L99.4136 54.7419Z" fill="#242424"/>
<path d="M21.5852 85.6955C23.3991 84.2368 23.7618 83.6899 23.9432 82.7782C25.2129 68.1917 30.1104 42.8477 39.9054 31.3609C46.6167 23.156 56.5931 19.8741 68.3833 19.8741C80.1735 19.8741 88.8801 21.3327 93.959 27.3496C94.6845 28.2613 95.7729 28.8083 96.8612 28.9906C98.1309 29.1729 99.2192 28.8083 100.126 28.0789L113.186 18.4154C113.73 18.0508 114.093 17.5038 114.456 16.9568C114.819 16.4098 115 15.8628 115 15.1335C115 14.5865 115 13.8571 114.819 13.3102C114.637 12.7632 114.274 12.2162 113.912 11.6692C104.661 1.64098 88.8801 0 70.9227 0C52.9653 0 35.1893 4.01128 23.2177 17.1391C6.34858 35.5545 1.08833 64.7274 0 92.4417C0 93.1711 0.181388 94.0827 0.544164 94.812C0.90694 95.5414 1.63249 96.0883 2.35804 96.453C3.0836 96.8177 3.99054 97 4.89748 97C5.80442 97 6.52997 96.6353 7.25552 96.2707L21.5852 85.6955Z" fill="#242424"/>
<path d="M76 67.0933C76 69.4398 75.2645 71.7863 73.7936 73.7718C72.3227 75.7572 70.3002 77.2012 67.91 78.1037C65.5198 79.0062 62.9457 79.1867 60.3716 78.8257C57.7976 78.4647 55.5912 77.2012 53.7526 75.5767C51.9139 73.9523 50.8108 71.7863 50.2592 69.4398C49.7076 67.0933 50.0753 64.7469 50.9946 62.4004C51.9139 60.2344 53.5687 58.249 55.7751 56.9855C57.9814 55.722 60.3716 55 62.9457 55C66.4391 55 69.7486 56.2635 72.1389 58.61C74.713 60.7759 76 63.8444 76 67.0933Z" fill="#242424"/>
</svg>
