<svg width="110" height="138" viewBox="0 0 110 138" fill="none" xmlns="http://www.w3.org/2000/svg">
<path d="M101.32 45.43L93.4202 44.23C92.5808 41.1794 91.3613 38.2464 89.7902 35.5L94.5302 29.05C94.6035 28.9435 94.6577 28.8251 94.6902 28.7C94.7279 28.5871 94.7481 28.469 94.7502 28.35C94.7506 28.1506 94.6914 27.9555 94.5802 27.79C91.2603 22.9509 87.0812 18.7616 82.2502 15.43C82.0731 15.3101 81.8641 15.2459 81.6502 15.2459C81.4363 15.2459 81.2273 15.3101 81.0502 15.43L80.9502 15.5L74.5602 20.16C71.7882 18.6174 68.8491 17.3962 65.8002 16.52L64.6002 8.69C64.5646 8.47383 64.4659 8.27303 64.3164 8.11287C64.1669 7.95272 63.9734 7.84038 63.7602 7.79C57.972 6.69 52.0284 6.69 46.2402 7.79C46.0257 7.83986 45.8307 7.95182 45.6796 8.11189C45.5284 8.27196 45.4277 8.47304 45.3902 8.69L44.1902 16.54C41.1569 17.4287 38.2321 18.6529 35.4702 20.19L29.0002 15.51H28.9302C28.758 15.3825 28.5494 15.3137 28.3352 15.3137C28.121 15.3137 27.9124 15.3825 27.7402 15.51C22.8962 18.8522 18.7067 23.0552 15.3802 27.91C15.2752 28.0631 15.2149 28.2425 15.2061 28.4279C15.1973 28.6133 15.2402 28.7976 15.3302 28.96C15.3578 29.0198 15.3913 29.0768 15.4302 29.13L20.2002 35.5C18.6258 38.2411 17.4156 41.1759 16.6002 44.23L8.7702 45.43C8.53416 45.44 8.30807 45.5278 8.12718 45.6797C7.94629 45.8317 7.82077 46.0392 7.7702 46.27C7.24219 49.1497 6.9844 52.0724 7.0002 55C6.99299 57.9297 7.24396 60.8544 7.7502 63.74C7.7866 63.9431 7.88495 64.13 8.03176 64.275C8.17857 64.42 8.36664 64.5161 8.5702 64.55H8.7202L16.6302 65.79C17.1031 67.6198 17.7389 69.4036 18.5302 71.12C19.0434 72.2845 19.621 73.4196 20.2602 74.52L15.5602 80.88C15.4804 80.9558 15.413 81.0435 15.3602 81.14C15.2828 81.2981 15.2486 81.4738 15.2608 81.6494C15.2731 81.825 15.3316 81.9942 15.4302 82.14C16.3809 83.5302 17.4092 84.8656 18.5102 86.14C21.2358 89.2951 24.3545 92.0879 27.7902 94.45C27.9601 94.5599 28.1579 94.6189 28.3602 94.62C28.597 94.6129 28.8265 94.5364 29.0202 94.4L35.4502 89.69C38.2166 91.2395 41.1527 92.4643 44.2002 93.34L45.4002 101.21C45.4539 101.493 45.6063 101.748 45.8302 101.93C45.9549 102.029 46.103 102.095 46.2602 102.12C49.1652 102.636 52.1097 102.897 55.0602 102.9C57.9855 102.919 60.9058 102.654 63.7802 102.11C63.9803 102.079 64.1638 101.98 64.3002 101.83C64.4613 101.658 64.569 101.442 64.6102 101.21L65.8102 93.34C68.8616 92.4665 71.8013 91.2416 74.5702 89.69L81.0002 94.51L81.1102 94.59C81.2815 94.7151 81.4881 94.7826 81.7002 94.7826C81.9123 94.7826 82.1189 94.7151 82.2902 94.59C85.8117 92.164 88.9903 89.2747 91.7402 86C92.7584 84.7988 93.7066 83.5401 94.5802 82.23C94.6643 82.0784 94.7133 81.9099 94.7237 81.7368C94.7341 81.5638 94.7056 81.3906 94.6402 81.23C94.6098 81.1611 94.5694 81.097 94.5202 81.04L89.7502 74.61C90.3202 73.61 90.8902 72.5 91.5102 71.22C92.2558 69.4876 92.8839 67.7069 93.3902 65.89L101.28 64.66C101.503 64.6457 101.715 64.5572 101.882 64.4086C102.048 64.26 102.16 64.0598 102.2 63.84C103.267 58.0386 103.267 52.0914 102.2 46.29C102.17 46.0691 102.068 45.8644 101.908 45.7086C101.749 45.5528 101.542 45.4547 101.32 45.43ZM100.32 62.73L92.4402 64C92.2459 64.0292 92.0646 64.1149 91.9188 64.2465C91.7729 64.3781 91.6691 64.5497 91.6202 64.74C91.1225 66.6667 90.4773 68.5523 89.6902 70.38C88.9902 71.82 88.3402 73.06 87.6902 74.17C87.5928 74.34 87.5475 74.535 87.56 74.7305C87.5724 74.9261 87.642 75.1137 87.7602 75.27L92.5302 81.7C91.7402 82.83 90.9802 83.83 90.2102 84.7C87.72 87.6784 84.8565 90.3235 81.6902 92.57L75.2202 87.84C75.0639 87.7254 74.8776 87.6588 74.6841 87.6481C74.4906 87.6375 74.2982 87.6833 74.1302 87.78C71.1559 89.5019 67.9688 90.8265 64.6502 91.72C64.4632 91.7699 64.2947 91.873 64.1651 92.0167C64.0355 92.1605 63.9504 92.3388 63.9202 92.53L62.7202 100.41C60.1691 100.832 57.5858 101.03 55.0002 101C52.4071 100.997 49.8185 100.783 47.2602 100.36L46.0602 92.49C46.03 92.2988 45.9449 92.1205 45.8153 91.9767C45.6857 91.833 45.5172 91.7299 45.3302 91.68C42.0146 90.7872 38.8306 89.4625 35.8602 87.74C35.6922 87.6433 35.4998 87.5975 35.3063 87.6081C35.1128 87.6188 34.9265 87.6855 34.7702 87.8L28.3402 92.5C25.2667 90.347 22.4662 87.8285 20.0002 85C19.1902 84.06 18.3902 83 17.4602 81.72L22.2202 75.27C22.3368 75.1127 22.4047 74.9246 22.4153 74.729C22.426 74.5335 22.379 74.3391 22.2802 74.17C21.5554 72.9534 20.9043 71.6945 20.3302 70.4C19.4939 68.5986 18.8471 66.7151 18.4002 64.78C18.3577 64.581 18.2554 64.3997 18.1071 64.2603C17.9588 64.1209 17.7715 64.0301 17.5702 64L9.5702 62.75C9.17192 60.1862 8.9813 57.5945 9.0002 55C8.98971 52.42 9.20049 49.8439 9.6302 47.3L17.5502 46.09C17.7444 46.0608 17.9258 45.9751 18.0716 45.8435C18.2175 45.7119 18.3213 45.5402 18.3702 45.35C19.1972 42.0596 20.5046 38.9091 22.2502 36C22.3598 35.8357 22.4183 35.6425 22.4183 35.445C22.4183 35.2475 22.3598 35.0543 22.2502 34.89L17.5002 28.43C20.4722 24.1965 24.1369 20.4946 28.3402 17.48L34.8102 22.18C34.9665 22.2945 35.1528 22.3612 35.3463 22.3719C35.5398 22.3825 35.7322 22.3367 35.9002 22.24C38.867 20.5316 42.0392 19.2076 45.3402 18.3C45.5286 18.2494 45.6981 18.1448 45.8278 17.9991C45.9575 17.8534 46.0418 17.673 46.0702 17.48L47.2702 9.64C52.3817 8.7493 57.6087 8.7493 62.7202 9.64L63.9202 17.49C63.9486 17.683 64.0329 17.8634 64.1626 18.0091C64.2923 18.1548 64.4618 18.2594 64.6502 18.31C67.9689 19.2032 71.1561 20.5278 74.1302 22.25C74.2982 22.3467 74.4906 22.3925 74.6841 22.3819C74.8776 22.3712 75.0639 22.3045 75.2202 22.19L81.6702 17.48C85.8865 20.4727 89.5652 24.1582 92.5502 28.38L87.7802 34.86C87.6706 35.0243 87.612 35.2175 87.612 35.415C87.612 35.6125 87.6706 35.8057 87.7802 35.97C89.5403 38.9027 90.8641 42.076 91.7102 45.39C91.7608 45.5784 91.8654 45.7479 92.0111 45.8776C92.1568 46.0073 92.3372 46.0916 92.5302 46.12L100.41 47.32C100.812 49.8601 101.01 52.4283 101 55C100.999 57.5898 100.785 60.1752 100.36 62.73H100.32ZM55.0002 24.51C48.9703 24.512 43.0763 26.3019 38.0636 29.6534C33.0508 33.0048 29.1444 37.7674 26.8382 43.3389C24.5321 48.9104 23.9297 55.0406 25.1073 60.9544C26.2849 66.8683 29.1895 72.3001 33.454 76.5632C37.7185 80.8263 43.1514 83.7292 49.0656 84.9049C54.9798 86.0805 61.1098 85.4761 66.6805 83.1681C72.2513 80.8601 77.0126 76.9521 80.3624 71.9383C83.7122 66.9245 85.5002 61.0299 85.5002 55C85.487 46.9159 82.269 39.1668 76.5517 33.4514C70.8345 27.736 63.0843 24.5206 55.0002 24.51ZM55.0002 83.51C49.3667 83.508 43.8602 81.8359 39.1768 78.7051C34.4934 75.5743 30.8433 71.1252 28.6879 65.9203C26.5325 60.7155 25.9686 54.9884 27.0674 49.4631C28.1662 43.9378 30.8784 38.8623 34.8612 34.8781C38.844 30.8939 43.9186 28.1799 49.4435 27.0791C54.9684 25.9784 60.6957 26.5403 65.9013 28.6939C71.1069 30.8475 75.5573 34.496 78.6897 39.1783C81.8222 43.8606 83.4962 49.3665 83.5002 55C83.4896 62.5545 80.4832 69.7964 75.1404 75.1373C69.7977 80.4782 62.5547 83.4821 55.0002 83.49V83.51ZM46.4402 62.34C46.4402 61.81 46.4402 61.4 46.4402 61.09C46.4172 60.774 46.3568 60.4618 46.2602 60.16C46.1513 59.8168 45.9381 59.5162 45.6502 59.3C45.4451 59.1767 45.2271 59.0761 45.0002 59L37.0002 55.3L45.2002 51.45C45.3982 51.3581 45.5831 51.2405 45.7502 51.1C45.9911 50.8771 46.1614 50.5886 46.2402 50.27C46.3167 49.9822 46.3636 49.6873 46.3802 49.39C46.3802 49.09 46.3802 48.69 46.3802 48.19C46.4341 47.5304 46.3134 46.8682 46.0302 46.27C45.826 45.944 45.5014 45.7117 45.1269 45.6237C44.7523 45.5357 44.3582 45.599 44.0302 45.8L30.5102 52.5C30.3093 52.632 30.1361 52.8018 30.0002 53C29.8492 53.2104 29.7405 53.4481 29.6802 53.7C29.6308 53.9278 29.5941 54.1581 29.5702 54.39C29.5702 54.65 29.5702 54.95 29.5702 55.29C29.5546 55.8242 29.605 56.3582 29.7202 56.88C29.7694 57.1377 29.8735 57.3818 30.0253 57.5957C30.1771 57.8097 30.3732 57.9885 30.6002 58.12L44.1002 64.84C44.3355 64.9583 44.589 65.0361 44.8502 65.07H45.0002C45.2023 65.0555 45.3981 64.9937 45.5719 64.8895C45.7456 64.7852 45.8923 64.6415 46.0002 64.47C46.2025 64.1731 46.3232 63.8282 46.3502 63.47C46.4041 63.0956 46.4342 62.7182 46.4402 62.34ZM44.4402 62.73L31.6602 56.37C31.5871 56.0081 31.5569 55.6389 31.5702 55.27C31.5702 55.01 31.5702 54.77 31.5702 54.58C31.5702 54.39 31.5702 54.28 31.6202 54.19L44.4202 47.84V48.18C44.4202 48.63 44.4202 48.99 44.4202 49.25C44.4202 49.51 44.4202 49.56 44.4202 49.64L34.2502 54.36C34.08 54.441 33.9362 54.5685 33.8354 54.7278C33.7345 54.887 33.6807 55.0715 33.6802 55.26C33.6788 55.4502 33.7317 55.6368 33.8327 55.798C33.9337 55.9592 34.0785 56.0882 34.2502 56.17L44.1802 60.77L44.3502 60.86C44.383 60.9911 44.403 61.1251 44.4102 61.26C44.4102 61.52 44.4102 61.88 44.4102 62.34L44.4402 62.73ZM62.5202 38.73C62.1975 38.5434 61.8403 38.4243 61.4702 38.38C60.6691 38.2945 59.8613 38.2945 59.0602 38.38C58.7635 38.4009 58.4709 38.4614 58.1902 38.56C57.8992 38.6618 57.6357 38.8295 57.4202 39.05C57.2264 39.2598 57.0798 39.5088 56.9902 39.78L46.4802 69.23C46.363 69.5495 46.3253 69.8927 46.3702 70.23C46.4091 70.4524 46.4965 70.6636 46.6261 70.8485C46.7557 71.0334 46.9244 71.1875 47.1202 71.3C47.4462 71.4773 47.8022 71.5926 48.1702 71.64C48.6112 71.6969 49.0556 71.7236 49.5002 71.72C49.8566 71.7389 50.2138 71.7389 50.5702 71.72C50.8588 71.6885 51.1436 71.6282 51.4202 71.54C51.7104 71.4464 51.9743 71.2853 52.1902 71.07C52.3905 70.8673 52.5471 70.6257 52.6502 70.36L63.1502 40.8C63.2553 40.4776 63.2828 40.135 63.2302 39.8C63.202 39.5765 63.1234 39.3622 63.0004 39.1734C62.8774 38.9846 62.7133 38.8262 62.5202 38.71V38.73ZM50.7802 69.6C50.6402 69.6423 50.496 69.6691 50.3502 69.68C50.0705 69.698 49.7899 69.698 49.5102 69.68C49.1758 69.6847 48.8416 69.6646 48.5102 69.62L58.8702 40.39C59.0043 40.3516 59.1415 40.3248 59.2802 40.31C59.5102 40.31 59.8002 40.31 60.1302 40.31C60.4631 40.2864 60.7973 40.2864 61.1302 40.31L50.7802 69.6ZM65.1202 45.52C64.8907 45.4959 64.6589 45.5343 64.4494 45.6311C64.24 45.7279 64.0605 45.8796 63.9302 46.07C63.7323 46.3683 63.6151 46.7129 63.5902 47.07C63.5541 47.4489 63.5374 47.8294 63.5402 48.21C63.5402 48.73 63.5402 49.14 63.5402 49.44C63.5498 49.7789 63.6036 50.115 63.7002 50.44C63.8121 50.7789 64.0249 51.0755 64.3102 51.29C64.5022 51.4309 64.7104 51.5484 64.9302 51.64L72.9302 55.34L64.8002 59.1C64.5694 59.1929 64.3563 59.3248 64.1702 59.49C63.9444 59.7175 63.7824 60.0002 63.7002 60.31C63.6228 60.5973 63.5792 60.8926 63.5702 61.19C63.5702 61.49 63.5702 61.89 63.5702 62.39C63.5679 62.724 63.5846 63.0579 63.6202 63.39C63.6531 63.7223 63.759 64.0433 63.9302 64.33C64.0393 64.5039 64.1855 64.6515 64.3584 64.7621C64.5313 64.8728 64.7266 64.9438 64.9302 64.97H65.0702C65.3594 64.9655 65.6436 64.8936 65.9002 64.76L79.3202 58.1C79.5909 58.0034 79.8273 57.8296 80.0002 57.6C80.1499 57.3888 80.2585 57.1514 80.3202 56.9C80.3822 56.6676 80.4224 56.4299 80.4402 56.19C80.4577 55.8936 80.4577 55.5964 80.4402 55.3C80.456 54.7477 80.3954 54.1958 80.2602 53.66C80.2097 53.4132 80.1056 53.1804 79.9553 52.9783C79.805 52.7761 79.6121 52.6094 79.3902 52.49L65.8902 45.76C65.6525 45.6285 65.3905 45.5469 65.1202 45.52ZM78.3402 54.22C78.425 54.5734 78.4587 54.9371 78.4402 55.3C78.4518 55.5265 78.4518 55.7535 78.4402 55.98C78.4402 56.13 78.4402 56.25 78.3802 56.36L65.5402 62.71V62.39C65.5402 61.94 65.5402 61.58 65.5402 61.32C65.5279 61.1903 65.5279 61.0597 65.5402 60.93L75.6602 56.18C75.832 56.0992 75.9773 55.9713 76.079 55.811C76.1808 55.6507 76.2348 55.4648 76.2348 55.275C76.2348 55.0852 76.1808 54.8993 76.079 54.739C75.9773 54.5787 75.832 54.4508 75.6602 54.37L65.6602 49.76L65.4902 49.68C65.4902 49.61 65.4902 49.5 65.4902 49.31C65.4902 49.12 65.4902 48.67 65.4902 48.2V47.82L78.2902 54.2L78.3402 54.22Z" fill="black"/>
</svg>
