<svg width="110" height="135" viewBox="0 0 110 135" fill="none" xmlns="http://www.w3.org/2000/svg">
<path fill-rule="evenodd" clip-rule="evenodd" d="M54.9999 13.9258C65.8359 13.9258 75.6719 15.125 82.8159 17.0586C90.6831 19.1914 95.5189 22.4063 95.5579 26.3125V91.2695C95.5579 95.1718 90.2688 99.2617 81.8239 102.081C65.8589 107.41 44.1329 107.41 28.1719 102.081C19.7266 99.2612 14.4419 95.1674 14.4419 91.2695V26.2385C14.5005 22.4026 19.3599 19.176 27.1839 17.0549C34.3284 15.1213 44.1639 13.9258 54.9999 13.9258ZM91.7189 31.8788C77.9849 40.9647 32.0119 40.9647 18.2779 31.8788V48.7738C18.2779 50.6879 22.0591 52.6683 28.1685 54.3246C42.9305 58.3246 67.0635 58.3246 81.8245 54.3246C87.9378 52.6684 91.7151 50.6879 91.7151 48.7738L91.7189 31.8788ZM18.2809 54.3398V71.2348C18.2809 73.1489 22.0621 75.1293 28.1754 76.7856C42.9374 80.7817 67.0704 80.7817 81.8314 76.7856C87.9447 75.1294 91.7259 73.1489 91.7259 71.2348L91.722 54.3398C77.984 63.4257 32.0149 63.4257 18.2809 54.3398ZM18.2809 76.8008V91.2698C18.2809 93.4456 22.5582 96.1721 29.3899 98.4534C44.5229 103.504 65.4839 103.504 80.6169 98.4534C87.445 96.1761 91.7259 93.4456 91.7259 91.2698L91.722 76.8008C77.984 85.8867 32.0149 85.8867 18.2809 76.8008ZM81.8279 20.7618C67.0659 16.7657 42.9329 16.7618 28.1719 20.7618C15.0239 24.3243 15.0239 28.297 28.1719 31.8598C42.9339 35.8598 67.0669 35.8598 81.8279 31.8598C94.9759 28.2973 94.9759 24.3246 81.8279 20.7618Z" fill="black"/>
</svg>
