<svg width="110" height="135" viewBox="0 0 110 135" fill="none" xmlns="http://www.w3.org/2000/svg">
<path d="M91.4061 52.055C91.4921 43.0472 88.0389 34.524 81.6795 28.059C75.324 21.5981 66.8675 18.004 57.8675 17.942C48.7933 17.8717 40.2585 21.3639 33.8205 27.7545C27.3825 34.1451 23.84 42.6605 23.84 51.7315C23.84 52.6612 23.8791 53.6026 23.9572 54.5362L18.7736 67.3022C18.2932 68.4819 18.8439 69.8256 20.0119 70.3334L26.1213 72.9857V77.8451C26.1213 79.142 27.1682 80.1889 28.4651 80.1889C29.7581 80.1889 30.8089 79.142 30.8089 77.8451V71.4506C30.8089 70.517 30.2542 69.6733 29.3987 69.3022L23.9768 66.9506L28.5159 55.7786C28.6566 55.427 28.7151 55.0442 28.6761 54.6614C28.5823 53.6926 28.5276 52.7083 28.5276 51.7395C28.5276 43.927 31.5824 36.5945 37.1215 31.0915C42.6137 25.6384 49.8875 22.6423 57.6215 22.6423H57.8324C65.5824 22.697 72.8634 25.7907 78.3404 31.3611C83.817 36.9314 86.7935 44.2671 86.7232 52.0251C86.6763 57.1892 85.2544 62.2441 82.6216 66.6501C78.5396 73.4782 77.2232 81.5021 78.9146 89.2401L80.524 96.6073C80.5787 96.869 80.4693 97.0604 80.399 97.1464C80.3287 97.2362 80.1646 97.3885 79.899 97.3885H70.6334V61.6615L74.4068 57.8881C74.7974 57.9897 75.2037 58.0444 75.6256 58.0444C78.3209 58.0444 80.5084 55.8569 80.5084 53.1616C80.5084 50.4624 78.3209 48.2788 75.6256 48.2788C72.9264 48.2788 70.7428 50.4663 70.7428 53.1616C70.7428 53.6928 70.8287 54.2007 70.985 54.6811L66.6295 59.0405C66.2193 59.4506 65.981 60.0014 65.9498 60.5757C65.9185 60.7319 65.8951 60.896 65.8951 61.064V97.392H62.7076L62.7037 47.037C64.2193 46.2089 65.2428 44.5995 65.2428 42.7558C65.2428 40.0605 63.0553 37.873 60.36 37.873C57.6608 37.873 55.4772 40.0605 55.4772 42.7558C55.4772 44.6035 56.5006 46.2128 58.0163 47.037V97.373H54.9538V76.014C54.9538 75.3929 54.7077 74.7952 54.2663 74.3578L45.4851 65.5766C45.6179 65.1352 45.6882 64.6664 45.6882 64.1821C45.6882 61.4868 43.5007 59.2993 40.8054 59.2993C38.1062 59.2993 35.9226 61.4868 35.9226 64.1821C35.9226 66.8813 38.1101 69.0649 40.8054 69.0649C41.2742 69.0649 41.7273 68.9985 42.1531 68.8774L50.2625 76.9868V90.4248L36.4425 91.1357C36.1456 91.1513 35.9464 91.0068 35.8566 90.917C35.7628 90.831 35.6066 90.6357 35.6066 90.3388V88.1279C35.6066 87.4092 35.2785 86.7295 34.716 86.2841L30.1652 82.6982C29.1496 81.8975 27.673 82.0732 26.8722 83.0889C26.0714 84.1045 26.2472 85.5811 27.2628 86.3819L30.919 89.2647V90.3428C30.919 91.8389 31.5401 93.2881 32.626 94.3194C33.7119 95.3507 35.1885 95.8975 36.6807 95.8194L48.6537 95.2022L49.0443 99.9131C49.1459 101.128 50.1615 102.061 51.3802 102.061H79.8842C81.5053 102.061 83.017 101.335 84.0365 100.073C85.0521 98.8076 85.4388 97.1748 85.0912 95.5927L83.4818 88.2255C82.0443 81.6552 83.1654 74.8425 86.6302 69.0415C89.6927 63.9204 91.3411 58.0495 91.3958 52.0535L91.4061 52.055Z" fill="black"/>
</svg>
