<svg width="110" height="135" viewBox="0 0 110 135" fill="none" xmlns="http://www.w3.org/2000/svg">
<path d="M80 85H30C20.6016 85 13 77.3984 13 68C13 58.6016 20.6016 51 30 51C31.3984 51 32.6992 51.1992 34 51.5C34.3008 42.3008 41.8008 35 51 35C57.3984 35 63.102 38.5 66 44C70.8984 43.5 75.3984 46.8008 76.602 51.3008C77.7036 51.1016 78.8012 51 80.0004 51C89.3988 51 97.0004 58.6016 97.0004 68C97.0004 77.3984 89.3984 85 80 85ZM30 55C22.8008 55 17 60.8008 17 68C17 75.1992 22.8008 81 30 81H80C87.1992 81 93 75.1992 93 68C93 60.8008 87.1992 55 80 55C78.5 55 77.1016 55.3008 75.6992 55.8008C75.0976 56 74.3984 55.9023 73.8984 55.6016C73.3984 55.2031 73.0976 54.6016 73 54C72.8984 50.1992 69.3008 47.1992 65.3984 48.3008C64.3984 48.6015 63.3984 48.1015 63 47.1016C61 42.2032 56.3008 39 51 39C43.8008 39 38 44.8008 38 52C38 52.6015 38.1015 53.3008 38.1992 54C38.3007 54.6992 38 55.5 37.3984 55.8984C36.7968 56.2968 36 56.3984 35.3984 56.0976C33.6992 55.3984 31.8984 55 30 55Z" fill="black"/>
</svg>
