<svg width="60" height="75" viewBox="0 0 60 75" fill="none" xmlns="http://www.w3.org/2000/svg">
<g clip-path="url(#clip0_460_9)">
<path d="M30.0002 5.50591e-06C29.0623 0.00218035 28.155 0.333842 27.4369 0.937037C26.7187 1.54023 26.2353 2.3766 26.0712 3.30001C21.089 4.03246 16.4106 6.14259 12.5638 9.39235C8.71695 12.6421 5.8548 16.9022 4.30021 21.692C4.25181 21.8187 4.22969 21.954 4.2352 22.0895C4.24071 22.225 4.27374 22.358 4.33228 22.4804C4.39082 22.6027 4.47364 22.7119 4.5757 22.8013C4.67776 22.8906 4.79694 22.9583 4.92597 23.0001C5.055 23.0419 5.1912 23.0571 5.32627 23.0446C5.46134 23.0321 5.59246 22.9923 5.71166 22.9276C5.83086 22.8629 5.93564 22.7745 6.01963 22.668C6.10362 22.5615 6.16506 22.439 6.20021 22.308C7.63396 17.894 10.267 13.9656 13.8051 10.9621C17.3433 7.95852 21.647 5.99813 26.2352 5.30001C26.4754 5.9927 26.9018 6.60585 27.4675 7.07222C28.0332 7.53859 28.7164 7.84017 29.4422 7.94387C30.168 8.04757 30.9083 7.94939 31.582 7.66009C32.2557 7.3708 32.8367 6.90157 33.2613 6.30387C33.6859 5.70617 33.9377 5.00308 33.989 4.27172C34.0404 3.54036 33.8894 2.80898 33.5525 2.15779C33.2156 1.5066 32.7059 0.960758 32.0793 0.580129C31.4527 0.1995 30.7334 -0.00121197 30.0002 5.50591e-06ZM30.0002 6.00001C29.6046 6.00001 29.218 5.88271 28.8891 5.66294C28.5602 5.44318 28.3038 5.13082 28.1525 4.76537C28.0011 4.39992 27.9615 3.99779 28.0386 3.60982C28.1158 3.22186 28.3063 2.8655 28.586 2.58579C28.8657 2.30609 29.2221 2.11561 29.61 2.03843C29.998 1.96126 30.4001 2.00087 30.7656 2.15225C31.131 2.30362 31.4434 2.55997 31.6631 2.88886C31.8829 3.21776 32.0002 3.60444 32.0002 4.00001C32.0002 4.53044 31.7895 5.03915 31.4144 5.41422C31.0394 5.78929 30.5306 6.00001 30.0002 6.00001Z" fill="black"/>
<path d="M5.50591e-06 30C0.00218035 30.9379 0.333842 31.8452 0.937037 32.5633C1.54023 33.2815 2.3766 33.7649 3.30001 33.929C4.03246 38.9112 6.14259 43.5896 9.39235 47.4364C12.6421 51.2833 16.9022 54.1454 21.692 55.7C21.9396 55.7664 22.2032 55.7353 22.4285 55.6129C22.6537 55.4906 22.8234 55.2864 22.9024 55.0426C22.9815 54.7987 22.9639 54.5339 22.8533 54.3026C22.7426 54.0714 22.5475 53.8915 22.308 53.8C17.894 52.3663 13.9656 49.7332 10.9621 46.1951C7.95852 42.657 5.99813 38.3533 5.30001 33.765C5.9927 33.5248 6.60585 33.0984 7.07222 32.5327C7.53859 31.967 7.84017 31.2838 7.94387 30.558C8.04757 29.8322 7.94939 29.0919 7.66009 28.4182C7.3708 27.7445 6.90157 27.1635 6.30387 26.7389C5.70617 26.3144 5.00308 26.0626 4.27172 26.0112C3.54036 25.9598 2.80898 26.1108 2.15779 26.4477C1.5066 26.7846 0.960758 27.2943 0.580129 27.9209C0.1995 28.5475 -0.00121197 29.2668 5.50591e-06 30ZM6.00001 30C6.00001 30.3956 5.88271 30.7822 5.66294 31.1111C5.44318 31.44 5.13082 31.6964 4.76537 31.8478C4.39992 31.9991 3.99779 32.0387 3.60982 31.9616C3.22186 31.8844 2.8655 31.6939 2.58579 31.4142C2.30609 31.1345 2.11561 30.7781 2.03843 30.3902C1.96126 30.0022 2.00087 29.6001 2.15225 29.2346C2.30362 28.8692 2.55997 28.5568 2.88886 28.3371C3.21776 28.1173 3.60444 28 4.00001 28C4.53044 28 5.03915 28.2107 5.41422 28.5858C5.78929 28.9609 6.00001 29.4696 6.00001 30Z" fill="black"/>
<path d="M30 52C29.2384 51.9982 28.4922 52.2139 27.849 52.6217C27.2057 53.0295 26.6923 53.6124 26.369 54.302C26.0457 54.9915 25.926 55.759 26.0239 56.5143C26.1219 57.2696 26.4333 57.9812 26.9218 58.5655C27.4103 59.1498 28.0554 59.5825 28.7813 59.8128C29.5072 60.043 30.2838 60.0613 31.0198 59.8654C31.7557 59.6694 32.4204 59.2675 32.9358 58.7067C33.4511 58.146 33.7957 57.4498 33.929 56.7C38.9112 55.9675 43.5896 53.8574 47.4364 50.6076C51.2833 47.3579 54.1454 43.0978 55.7 38.308C55.7484 38.1813 55.7705 38.046 55.765 37.9105C55.7595 37.775 55.7265 37.642 55.6679 37.5196C55.6094 37.3973 55.5266 37.2881 55.4245 37.1987C55.3224 37.1094 55.2033 37.0417 55.0742 36.9999C54.9452 36.9581 54.809 36.9429 54.6739 36.9554C54.5389 36.9679 54.4077 37.0077 54.2885 37.0724C54.1693 37.1371 54.0646 37.2255 53.9806 37.332C53.8966 37.4385 53.8351 37.561 53.8 37.692C52.3662 42.106 49.7332 46.0344 46.1951 49.0379C42.657 52.0415 38.3533 54.0019 33.765 54.7C33.4962 53.9143 32.9891 53.2319 32.3143 52.7479C31.6394 52.264 30.8304 52.0025 30 52ZM30 58C29.6044 58 29.2178 57.8827 28.8889 57.6629C28.56 57.4432 28.3036 57.1308 28.1522 56.7654C28.0009 56.3999 27.9613 55.9978 28.0384 55.6098C28.1156 55.2219 28.3061 54.8655 28.5858 54.5858C28.8655 54.3061 29.2219 54.1156 29.6098 54.0384C29.9978 53.9613 30.3999 54.0009 30.7654 54.1522C31.1308 54.3036 31.4432 54.56 31.6629 54.8889C31.8827 55.2178 32 55.6044 32 56C32 56.5304 31.7893 57.0391 31.4142 57.4142C31.0391 57.7893 30.5304 58 30 58Z" fill="black"/>
<path d="M56.7 26.071C55.9675 21.0888 53.8574 16.4104 50.6076 12.5636C47.3579 8.71675 43.0978 5.8546 38.308 4.30001C38.0604 4.23358 37.7968 4.26475 37.5715 4.38709C37.3463 4.50943 37.1766 4.7136 37.0976 4.95743C37.0185 5.20127 37.0361 5.46615 37.1467 5.69738C37.2573 5.92861 37.4525 6.10854 37.692 6.20001C42.106 7.63376 46.0344 10.2668 49.0379 13.8049C52.0415 17.343 54.0019 21.6467 54.7 26.235C53.7853 26.5549 53.0185 27.1972 52.5432 28.0416C52.0679 28.8861 51.9167 29.8748 52.1179 30.8227C52.319 31.7706 52.8588 32.6128 53.6361 33.1914C54.4134 33.77 55.3749 34.0456 56.3407 33.9664C57.3065 33.8872 58.2103 33.4587 58.8829 32.7612C59.5556 32.0636 59.9509 31.1448 59.995 30.1768C60.039 29.2088 59.7288 28.2579 59.1223 27.5021C58.5157 26.7464 57.6546 26.2376 56.7 26.071ZM56 32C55.6044 32 55.2177 31.8827 54.8888 31.6629C54.56 31.4432 54.3036 31.1308 54.1522 30.7654C54.0009 30.3999 53.9612 29.9978 54.0384 29.6098C54.1156 29.2219 54.3061 28.8655 54.5858 28.5858C54.8655 28.3061 55.2218 28.1156 55.6098 28.0384C55.9978 27.9613 56.3999 28.0009 56.7654 28.1522C57.1308 28.3036 57.4432 28.56 57.6629 28.8889C57.8827 29.2178 58 29.6044 58 30C58 30.5304 57.7893 31.0391 57.4142 31.4142C57.0391 31.7893 56.5304 32 56 32Z" fill="black"/>
<path d="M50.0001 30C49.9973 27.1146 49.3656 24.2644 48.1491 21.648C48.1357 21.6162 48.1207 21.5852 48.1041 21.555C46.5017 18.1037 43.9462 15.1823 40.7387 13.1351C37.5311 11.0879 33.8052 10.0002 30.0001 10.0002C26.1949 10.0002 22.469 11.0879 19.2615 13.1351C16.0539 15.1823 13.4984 18.1037 11.8961 21.555C11.8795 21.5849 11.8645 21.6156 11.8511 21.647C10.6325 24.262 10.001 27.112 10.001 29.997C10.001 32.882 10.6325 35.732 11.8511 38.347C11.8645 38.3784 11.8795 38.4091 11.8961 38.439C13.4984 41.8903 16.0539 44.8117 19.2615 46.859C22.469 48.9062 26.1949 49.9938 30.0001 49.9938C33.8052 49.9938 37.5311 48.9062 40.7387 46.859C43.9462 44.8117 46.5017 41.8903 48.1041 38.439C48.1201 38.407 48.1361 38.379 48.1491 38.346C49.3648 35.7314 49.9964 32.8834 50.0001 30ZM12.0511 31H19.0271C19.0741 33.015 19.2932 35.0223 19.6821 37H13.4171C12.6186 35.0939 12.1564 33.0639 12.0511 31ZM13.4171 23H19.6821C19.2932 24.9777 19.0741 26.985 19.0271 29H12.0511C12.1564 26.9361 12.6186 24.9061 13.4171 23ZM47.9491 29H40.9731C40.926 26.985 40.7069 24.9777 40.3181 23H46.5831C47.3816 24.9061 47.8438 26.9361 47.9491 29ZM38.9741 29H31.0001V23H38.2621C38.6839 24.9738 38.9223 26.9823 38.9741 29ZM31.0001 21V12.125C33.8411 12.787 36.3221 16.225 37.7411 21H31.0001ZM29.0001 12.125V21H22.2591C23.6781 16.224 26.1591 12.787 29.0001 12.125ZM29.0001 23V29H21.0261C21.0779 26.9823 21.3162 24.9738 21.7381 23H29.0001ZM21.0261 31H29.0001V37H21.7381C21.3162 35.0262 21.0779 33.0177 21.0261 31ZM29.0001 39V47.875C26.1591 47.213 23.6781 43.775 22.2591 39H29.0001ZM31.0001 47.875V39H37.7411C36.3221 43.776 33.8411 47.213 31.0001 47.875ZM31.0001 37V31H38.9741C38.9223 33.0177 38.6839 35.0262 38.2621 37H31.0001ZM40.9731 31H47.9491C47.8438 33.0639 47.3816 35.0939 46.5831 37H40.3181C40.7069 35.0223 40.926 33.015 40.9731 31ZM45.5641 21H39.8501C39.1422 18.0621 37.7742 15.3242 35.8501 12.994C39.9429 14.4123 43.3902 17.2534 45.5641 21ZM24.1541 12.994C22.2299 15.3242 20.862 18.0621 20.1541 21H14.4361C16.611 17.2527 20.0598 14.4115 24.1541 12.994ZM14.4361 39H20.1501C20.858 41.9379 22.2259 44.6758 24.1501 47.006C20.0572 45.5877 16.61 42.7466 14.4361 39ZM35.8461 47.006C37.7702 44.6758 39.1382 41.9379 39.8461 39H45.5601C43.3862 42.7466 39.9389 45.5877 35.8461 47.006Z" fill="black"/>
</g>
<defs>
<clipPath id="clip0_460_9">
<rect width="60" height="75" fill="white"/>
</clipPath>
</defs>
</svg>
