<svg width="88" height="88" viewBox="0 0 88 88" fill="none" xmlns="http://www.w3.org/2000/svg">
<path fill-rule="evenodd" clip-rule="evenodd" d="M50.168 9.32C50.7969 9.55828 51.1094 10.2614 50.8711 10.8903C50.6328 11.5192 49.9297 11.8317 49.3008 11.5934L35.8358 6.44502C20.1168 12.4528 6.0118 17.855 2.5978 19.16V34.137H2.5939C2.5939 45.532 5.7619 55.903 11.5119 64.563C17.2424 73.188 25.5389 80.122 35.8359 84.684C45.164 80.5512 52.8559 74.465 58.4809 66.938C64.1684 59.3325 67.7426 50.247 68.7699 40.208C68.8363 39.5401 69.434 39.0557 70.1019 39.1221C70.7699 39.1885 71.2542 39.7862 71.1878 40.4541C70.1175 50.9461 66.3792 60.4421 60.4338 68.3921C54.465 76.3765 46.2698 82.8061 36.3168 87.1191C36.0199 87.248 35.6762 87.2558 35.3559 87.1191C24.3949 82.3652 15.5629 75.0451 9.48486 65.9001C3.47706 56.8532 0.168458 46.0251 0.168458 34.1341L0.164551 34.138V18.326C0.164551 17.8377 0.465331 17.3729 0.949711 17.1893C0.996586 17.1698 17.1767 10.9745 35.4067 4.00533C35.6762 3.90377 35.9809 3.89595 36.2739 4.00533L50.168 9.32ZM46.7891 34.988V30.9646C46.7891 28.699 45.8633 26.6404 44.3672 25.1482C42.875 23.656 40.8125 22.7263 38.5508 22.7263H33.1172V22.7224C30.8594 22.7224 28.8008 23.6521 27.3047 25.1482C27.2852 25.1677 27.2656 25.1873 27.2461 25.2029C25.7891 26.6873 24.8867 28.7224 24.8867 30.9607V30.9646H24.8828L24.8867 34.988C27.8789 34.3825 31.6992 34.0153 35.8437 34.0153C39.9804 34.0192 43.7972 34.3825 46.7891 34.988ZM22.4571 35.5935C19.5548 36.488 17.8087 37.7888 17.8087 39.3513V59.8393C17.8087 61.6088 20.047 63.0424 23.6642 63.9291C26.8009 64.6986 31.1095 65.1713 35.8362 65.1713C40.5667 65.1713 44.8714 64.6947 48.0082 63.9291C51.6254 63.0423 53.8637 61.6088 53.8637 59.8393L53.8676 39.3513C53.8676 37.7888 52.1254 36.488 49.227 35.5974V30.9646C49.227 28.0271 48.0278 25.3591 46.0942 23.4255C44.1606 21.4919 41.4926 20.2927 38.5551 20.2927H33.1215V20.2966C30.184 20.2966 27.516 21.4958 25.5863 23.4255C25.5629 23.4489 25.5394 23.4724 25.5199 23.4958C23.6254 25.4255 22.4535 28.0622 22.4535 30.9567V30.9606H22.4574L22.4571 35.5935ZM37.0551 50.6165C37.7699 50.4094 38.4145 50.0227 38.9262 49.511C39.7152 48.7219 40.2074 47.6282 40.2074 46.4212C40.2074 45.2142 39.7191 44.1204 38.9262 43.3314C38.1371 42.5423 37.0434 42.0502 35.8364 42.0502C34.6294 42.0502 33.5356 42.5385 32.7466 43.3314C31.9575 44.1204 31.4654 45.2142 31.4654 46.4212C31.4654 47.6282 31.9537 48.722 32.7466 49.511C33.2583 50.0227 33.9028 50.4094 34.6177 50.6165V55.6634C34.6177 56.3352 35.1607 56.8822 35.8365 56.8822C36.5084 56.8822 37.0553 56.3353 37.0553 55.6634L37.0551 50.6165ZM37.2074 45.0501C36.8559 44.6985 36.3754 44.4837 35.8402 44.4837C35.3051 44.4837 34.8207 44.6985 34.473 45.0501C34.1215 45.4016 33.9066 45.8821 33.9066 46.4173C33.9066 46.9524 34.1215 47.4368 34.473 47.7845C34.8246 48.136 35.3051 48.3509 35.8402 48.3509C36.3754 48.3509 36.8597 48.136 37.2074 47.7845C37.559 47.4329 37.7738 46.9524 37.7738 46.4173C37.7699 45.886 37.5551 45.4017 37.2074 45.0501ZM51.4304 59.8391V39.3511C51.4304 38.8472 49.907 38.2222 47.4382 37.6206C44.4929 36.8979 40.3913 36.4526 35.8362 36.4526C31.2815 36.4526 27.18 36.8979 24.2342 37.6206C24.1483 37.6401 24.0584 37.6635 23.9764 37.687L23.9686 37.6909C21.66 38.2729 20.2459 38.8706 20.2459 39.355V59.843C20.2459 60.3469 21.7732 60.9719 24.2381 61.5735C27.1834 62.2961 31.285 62.7415 35.8401 62.7415C40.3948 62.7415 44.4963 62.2962 47.4421 61.5735C49.9069 60.9641 51.4304 60.343 51.4304 59.8391ZM70.2934 3.21407C66.1215 3.21407 62.3442 4.90547 59.6094 7.63987C56.8746 10.3743 55.1836 14.1516 55.1836 18.3239C55.1836 22.4962 56.875 26.2731 59.6094 29.0079C62.3438 31.7423 66.1211 33.4337 70.2934 33.4337C74.4657 33.4337 78.2426 31.7423 80.9774 29.0079C83.7118 26.2735 85.4032 22.4962 85.4032 18.3239C85.4032 14.1516 83.7118 10.3747 80.9774 7.63987C78.243 4.90937 74.4657 3.21407 70.2934 3.21407ZM57.8874 5.91717C54.7116 9.09297 52.7507 13.4758 52.7507 18.3232C52.7507 23.167 54.7155 27.5537 57.8874 30.7292C61.0632 33.905 65.446 35.8659 70.2934 35.8659C75.1372 35.8659 79.5239 33.9011 82.6994 30.7292C85.8752 27.5534 87.8361 23.1706 87.8361 18.3232C87.8361 13.4794 85.8713 9.09267 82.6994 5.91717C79.5236 2.74527 75.1369 0.780472 70.2934 0.780472C65.4499 0.780472 61.0629 2.74527 57.8874 5.91717ZM61.9304 20.9832C65.8484 24.4715 67.1452 25.6512 67.1531 25.659C67.6531 26.1043 68.4187 26.0613 68.864 25.5652C68.8836 25.5418 68.9031 25.5223 68.9187 25.4988L78.8093 12.6438C79.2195 12.1126 79.1218 11.3508 78.5906 10.9407C78.0593 10.5306 77.2976 10.6282 76.8875 11.1595L67.8055 22.9685C66.9461 22.1989 65.6024 21.0037 63.5477 19.1716C63.0438 18.7263 62.2782 18.7692 61.8289 19.2731C61.3836 19.7692 61.4265 20.5379 61.9304 20.9832Z" fill="black"/>
</svg>
